<?xml version="1.0" encoding="utf-8"?>
<!-- Generator: Adobe Illustrator 16.0.0, SVG Export Plug-In . SVG Version: 6.00 Build 0)  -->
<!DOCTYPE svg PUBLIC "-//W3C//DTD SVG 1.1//EN" "http://www.w3.org/Graphics/SVG/1.1/DTD/svg11.dtd">
<svg version="1.1" id="Calque_1" xmlns="http://www.w3.org/2000/svg" xmlns:xlink="http://www.w3.org/1999/xlink" x="0px" y="0px"
	 width="283.46px" height="283.46px" viewBox="0 0 283.46 283.46" enable-background="new 0 0 283.46 283.46" xml:space="preserve">
<rect display="none" fill="#D4DFD8" width="283.46" height="283.46"/>
<g>
	<path fill="none" d="M124.236,76.852v2.524c5.093-1.655,10.43-2.523,15.802-2.523"/>
	<path fill="none" d="M176.038,101.102h0.061c-4.934-3.072-10.751-4.854-16.979-4.854v0.004h-19.082
		c-5.644,0-11.066,1.509-15.802,4.196v62.183h34.884c6.228,0,12.045-1.78,16.979-4.854h-0.061
		c8.16-5.062,11.728-13.587,13.016-23.13v-10.417C187.765,114.687,184.198,106.164,176.038,101.102z"/>
	<path fill="#FFFFFF" d="M140.038,76.853c-5.372,0-10.709,0.868-15.802,2.523V76.85V65.623c-12.422,0-22.527-9.289-22.527,3.132
		V159.4c0,1.784-1.448,3.231-3.232,3.231h-3.231c-12.422,0-20.525,10.107-20.525,22.529v2.674c0,12.421,8.104,3.13,20.525,3.13
		v-5.703c0-1.784,1.447-3.232,3.231-3.232c1.785,0,3.232,1.448,3.232,3.232v29.444c0,12.423,12.601,9.774,25.021,9.774
		l-2.494-42.451h34.884c27.138,0,49.433-21.053,51.455-47.681c0.018-0.198,0.032-0.395,0.047-0.593
		c0.069-1.109,0.119-2.224,0.119-3.35v-1.931c0-1.126-0.05-2.24-0.119-3.349c-0.015-0.198-0.029-0.396-0.047-0.594
		c-2.022-26.627-24.317-47.681-51.455-47.681L140.038,76.853z M189.053,134.648c-1.288,9.543-4.855,18.067-13.016,23.13h0.061
		c-4.934,3.073-10.751,4.854-16.979,4.854h-34.884v-62.183c4.735-2.687,10.158-4.196,15.802-4.196h19.082v-0.004
		c6.228,0,12.045,1.782,16.979,4.854h-0.061c8.16,5.062,11.728,13.585,13.016,23.129V134.648z"/>
</g>
</svg>
